<svg width="8" height="9" viewBox="0 0 8 9" fill="none" xmlns="http://www.w3.org/2000/svg">
<path fill-rule="evenodd" clip-rule="evenodd" d="M7.45297 1.68456C7.61506 1.68456 7.75 1.81915 7.75 1.99039V2.14873C7.75 2.31581 7.61506 2.45456 7.45297 2.45456H0.547439C0.384942 2.45456 0.25 2.31581 0.25 2.14873V1.99039C0.25 1.81915 0.384942 1.68456 0.547439 1.68456H1.76232C2.0091 1.68456 2.22388 1.50915 2.27939 1.26165L2.34301 0.977488C2.44189 0.590409 2.76729 0.333328 3.1397 0.333328H4.8603C5.22866 0.333328 5.5577 0.590409 5.65293 0.957072L5.72101 1.26124C5.77612 1.50915 5.9909 1.68456 6.23809 1.68456H7.45297ZM6.83576 7.4725C6.9626 6.29043 7.18466 3.48212 7.18466 3.45379C7.19277 3.36796 7.16481 3.28671 7.10929 3.22129C7.04972 3.16004 6.97435 3.12379 6.89128 3.12379H1.11189C1.02841 3.12379 0.948982 3.16004 0.893871 3.22129C0.837949 3.28671 0.810394 3.36796 0.814446 3.45379C0.815191 3.459 0.823159 3.55792 0.83648 3.7233C0.89566 4.45798 1.06049 6.50422 1.167 7.4725C1.24237 8.18583 1.71041 8.63415 2.38836 8.6504C2.91151 8.66249 3.45047 8.66665 4.00158 8.66665C4.52068 8.66665 5.04789 8.66249 5.58725 8.6504C6.2887 8.63832 6.75634 8.19791 6.83576 7.4725Z" fill="#F74821"/>
</svg>
