<svg width="10" height="11" viewBox="0 0 10 11" fill="none" xmlns="http://www.w3.org/2000/svg">
<g clip-path="url(#clip0_40_3225)">
<path d="M5 0.5C2.23857 0.5 0 2.73859 0 5.5C0 8.26141 2.23857 10.5 5 10.5C7.76143 10.5 10 8.26141 10 5.5C10 2.73859 7.76143 0.5 5 0.5ZM1.30436 5.5C1.30436 3.45893 2.95896 1.80436 5 1.80436C5.78496 1.80436 6.51262 2.0493 7.11111 2.4666L1.96658 7.61111C1.54928 7.01262 1.30436 6.28496 1.30436 5.5ZM5 9.19564C4.21504 9.19564 3.48738 8.9507 2.88889 8.5334L8.0334 3.38889C8.4507 3.98738 8.69564 4.71504 8.69564 5.5C8.69564 7.54104 7.04104 9.19564 5 9.19564Z" fill="#FF7171"/>
</g>
<defs>
<clipPath id="clip0_40_3225">
<rect width="10" height="10" fill="white" transform="translate(0 0.5)"/>
</clipPath>
</defs>
</svg>
