<svg width="8" height="8" viewBox="0 0 8 8" fill="none" xmlns="http://www.w3.org/2000/svg">
<path fill-rule="evenodd" clip-rule="evenodd" d="M2.90683 7.09496L6.56783 2.3606C6.76679 2.10529 6.83754 1.81012 6.77121 1.50958C6.71374 1.23636 6.54572 0.976572 6.29369 0.779493L5.67911 0.291277C5.14411 -0.134234 4.48088 -0.0894431 4.10063 0.398774L3.68944 0.932229C3.63638 0.998967 3.64964 1.09751 3.71597 1.15125C3.71597 1.15125 4.75501 1.98436 4.77712 2.00227C4.84787 2.06946 4.90092 2.15904 4.91419 2.26654C4.9363 2.47705 4.79039 2.67413 4.57373 2.70101C4.47204 2.71444 4.37477 2.68309 4.30402 2.62486L3.21192 1.75593C3.15886 1.71606 3.07927 1.72457 3.03506 1.77832L0.439641 5.13761C0.271624 5.34813 0.214145 5.62135 0.271624 5.88561L0.603236 7.32339C0.620922 7.39953 0.687244 7.45328 0.766831 7.45328L2.22592 7.43537C2.49121 7.43089 2.73882 7.30995 2.90683 7.09496ZM4.94983 6.64712H7.32904C7.56116 6.64712 7.74996 6.83838 7.74996 7.07352C7.74996 7.30912 7.56116 7.49993 7.32904 7.49993H4.94983C4.7177 7.49993 4.52891 7.30912 4.52891 7.07352C4.52891 6.83838 4.7177 6.64712 4.94983 6.64712Z" fill="#F74821"/>
</svg>
