<svg width="20" height="20" viewBox="0 0 20 20" fill="none" xmlns="http://www.w3.org/2000/svg">
<path d="M9.99984 17.0833H5.83317C3.33317 17.0833 1.6665 15.8333 1.6665 12.9167V7.08333C1.6665 4.16667 3.33317 2.91667 5.83317 2.91667H14.1665C16.6665 2.91667 18.3332 4.16667 18.3332 7.08333V9.58333" stroke="black" stroke-opacity="0.5" stroke-width="1.5" stroke-miterlimit="10" stroke-linecap="round" stroke-linejoin="round"/>
<path d="M14.1668 7.5L11.5585 9.58333C10.7002 10.2667 9.29183 10.2667 8.43349 9.58333L5.8335 7.5" stroke="black" stroke-opacity="0.5" stroke-width="1.5" stroke-miterlimit="10" stroke-linecap="round" stroke-linejoin="round"/>
<path d="M16.0085 12.3083L13.0585 15.2583C12.9419 15.375 12.8335 15.5917 12.8085 15.75L12.6502 16.875C12.5919 17.2833 12.8752 17.5667 13.2835 17.5084L14.4085 17.35C14.5669 17.325 14.7919 17.2167 14.9002 17.1L17.8502 14.15C18.3585 13.6417 18.6002 13.05 17.8502 12.3C17.1085 11.5584 16.5169 11.8 16.0085 12.3083Z" stroke="black" stroke-opacity="0.5" stroke-width="1.5" stroke-miterlimit="10" stroke-linecap="round" stroke-linejoin="round"/>
<path d="M15.5835 12.7333C15.8335 13.6333 16.5335 14.3333 17.4335 14.5833" stroke="black" stroke-opacity="0.5" stroke-width="1.5" stroke-miterlimit="10" stroke-linecap="round" stroke-linejoin="round"/>
</svg>
